<svg width="150" height="156" xmlns="http://www.w3.org/2000/svg" xmlns:xlink="http://www.w3.org/1999/xlink" overflow="hidden"><defs><clipPath id="clip0"><rect x="452" y="96" width="150" height="156"/></clipPath></defs><g clip-path="url(#clip0)" transform="translate(-452 -96)"><path d="M485 172 485 250 499 250 499 192.766C499 190.557 500.791 188.766 503 188.766 505.209 188.766 507 190.557 507 192.766L507 250 523 250 523 192.766C523 190.557 524.791 188.766 527 188.766 529.209 188.766 531 190.557 531 192.766L531 250 547 250 547 192.766C547 190.557 548.791 188.766 551 188.766 553.209 188.766 555 190.557 555 192.766L555 250 569 250 569 172Z" stroke="#5B9BD5" stroke-width="2.10415" stroke-miterlimit="8" fill="#5B9BD5" fill-rule="evenodd"/><path d="M599.847 121.814 599.847 121.814C598.238 107.669 586.409 96.9951 572.349 97.002L482.447 97.002C472.024 96.8797 462.297 102.284 456.799 111.252 446.417 128.785 458.802 147.758 475.987 147.758L478.459 147.758C482.583 147.758 486.502 145.938 489.191 142.772L489.191 142.772C492.32 139.176 493.738 134.375 493.072 129.63 492.419 125.395 489.213 120.9 484.558 120.9 480.059 120.9 477.152 123.6 477.152 127.778 477.151 128.967 477.824 130.051 478.882 130.564 480.409 131.225 481.118 133.015 480.465 134.561 480.369 134.79 480.245 135.005 480.097 135.203 479.14 136.394 477.479 136.721 476.15 135.983 473.083 134.422 471.145 131.246 471.138 127.77 471.064 120.671 476.688 114.855 483.699 114.781 483.985 114.778 484.272 114.785 484.558 114.801 491.575 114.801 497.79 120.77 499.015 128.684 500.461 139.445 494.268 149.762 484.169 153.416L484.169 164 568.371 164 568.371 153.274C558.531 149.443 552.575 139.271 553.978 128.69 555.201 120.772 561.416 114.805 568.435 114.805 575.434 114.392 581.439 119.803 581.847 126.891 581.864 127.185 581.87 127.48 581.867 127.774 581.86 131.25 579.922 134.426 576.855 135.987 575.523 136.727 573.858 136.395 572.902 135.199 571.899 133.858 572.159 131.948 573.483 130.933 573.679 130.783 573.891 130.658 574.117 130.56 575.175 130.047 575.849 128.963 575.847 127.774 575.847 123.596 572.938 120.896 568.429 120.896 563.774 120.896 560.568 125.395 559.915 129.626 559.324 133.738 560.318 137.922 562.689 141.312 563.034 141.816 563.404 142.302 563.798 142.768L563.858 142.841C566.683 146.03 570.733 147.823 574.963 147.758L577.008 147.758C589.692 147.772 599.986 137.371 600 124.525 600.001 123.619 599.95 122.714 599.847 121.814Z" stroke="#5B9BD5" stroke-width="2.10415" stroke-miterlimit="8" fill="#5B9BD5" fill-rule="evenodd"/><path d="M511.5 138.867 527.694 106.5 527.694 125.237 544.5 121.822 527.694 153.5 527.694 135.107 511.5 138.867Z" stroke="#5B9BD5" stroke-width="3.10415" stroke-miterlimit="8" fill="#FFFFFF" fill-rule="evenodd"/></g></svg>